<svg id="Шар_1" data-name="Шар 1" xmlns="http://www.w3.org/2000/svg" viewBox="0 0 470.55 470.55"><defs><style>.cls-1{fill:#231f20;fill-rule:evenodd;}</style></defs><title>Pandora Prometheus</title><path class="cls-1" d="M426.46,101.51H368.1a171.85,171.85,0,0,0-265.65,0H44.09l29.41,51A172,172,0,0,0,204.69,379.69l30.59,53,30.58-53A172,172,0,0,0,397.05,152.46Zm-35.82,20-4.2,7.26c-1.33-2.45-2.72-4.88-4.17-7.26Zm-34.15,0a150.16,150.16,0,0,1,17,29.68L253,359.92a149.8,149.8,0,0,1-35.41,0L97.05,151.17a150.16,150.16,0,0,1,17-29.68ZM235.28,60.14a149.89,149.89,0,0,1,103.6,41.37H131.67A149.9,149.9,0,0,1,235.28,60.14ZM79.91,121.49h8.37c-1.45,2.38-2.84,4.81-4.17,7.26Zm5,89.06a151.18,151.18,0,0,1,3.5-32.35L189.85,354A150.48,150.48,0,0,1,84.86,210.55Zm150.42,180-4.77-8.25c1.58.05,3.17.07,4.77.07s3.18,0,4.76-.07Zm150.41-180A150.48,150.48,0,0,1,280.7,354L382.19,178.2A151.18,151.18,0,0,1,385.69,210.55Z"/><path class="cls-1" d="M243.79,141.12c-12.77,5.27-46.31,41.2-26.88,91.78,7.18,18.37,25.33,44.65,10,86,15.93-39.48,48.06-47.41,23.95-104.7-26-49.59-9.85-54.51-7.1-73.12Z"/></svg>